HIERARCHY
ROOT SpineBase
{
  OFFSET 0.000000 0.000000 0.000000
  CHANNELS 6 Xposition Yposition Zposition Zrotation Xrotation Yrotation
  JOINT SpineMid
  {
    OFFSET 0.000000 19.668504 0.000000
    CHANNELS 3 Zrotation Xrotation Yrotation
    JOINT SpineShoulder
    {
      OFFSET -0.122538 14.348566 -0.403124
      CHANNELS 3 Zrotation Xrotation Yrotation
      JOINT Neck
      {
        OFFSET -0.036295 4.729960 -0.223543
        CHANNELS 3 Zrotation Xrotation Yrotation
        JOINT Head
        {
          OFFSET -2.221677 15.423031 2.633818
          CHANNELS 3 Zrotation Xrotation Yrotation
          End Site
          {
            OFFSET 0 0 0
          }
        }
      }
      JOINT ShoulderLeft
      {
        OFFSET -12.884451 9.420535 13.623848
        CHANNELS 3 Zrotation Xrotation Yrotation
        JOINT ElbowLeft
        {
          OFFSET -22.372971 -9.724242 5.804063
          CHANNELS 3 Zrotation Xrotation Yrotation
          JOINT WristLeft
          {
            OFFSET 17.183240 5.747845 0.263407
            CHANNELS 3 Zrotation Xrotation Yrotation
            JOINT HandLeft
            {
              OFFSET 3.797152 -0.628003 -5.820531
              CHANNELS 3 Zrotation Xrotation Yrotation
              JOINT HandTipLeft
              {
                OFFSET 3.452156 1.754185 -3.462567
                CHANNELS 3 Zrotation Xrotation Yrotation
                End Site
                {
                  OFFSET 0 0 0
                }
              }
              JOINT ThumbLeft
              {
                OFFSET -1.618167 4.586068 -2.153690
                CHANNELS 3 Zrotation Xrotation Yrotation
                End Site
                {
                  OFFSET 0 0 0
                }
              }
            }
          }
        }
      }
      JOINT ShoulderRight
      {
        OFFSET -15.486026 -3.287863 14.493502
        CHANNELS 3 Zrotation Xrotation Yrotation
        JOINT ElbowRight
        {
          OFFSET 6.684497 -6.397101 -24.273516
          CHANNELS 3 Zrotation Xrotation Yrotation
          JOINT WristRight
          {
            OFFSET -8.362166 -15.346453 -18.801361
            CHANNELS 3 Zrotation Xrotation Yrotation
            JOINT HandRight
            {
              OFFSET -3.481583 -3.181745 -6.027121
              CHANNELS 3 Zrotation Xrotation Yrotation
              JOINT HandTipRight
              {
                OFFSET -4.580114 -1.234093 -2.951540
                CHANNELS 3 Zrotation Xrotation Yrotation
                End Site
                {
                  OFFSET 0 0 0
                }
              }
              JOINT ThumbRight
              {
                OFFSET -3.560514 -4.949428 0.483381
                CHANNELS 3 Zrotation Xrotation Yrotation
                End Site
                {
                  OFFSET 0 0 0
                }
              }
            }
          }
        }
      }
    }
  }
  JOINT HipLeft
  {
    OFFSET 1.400709 1.682720 -2.478283
    CHANNELS 3 Zrotation Xrotation Yrotation
    JOINT KneeLeft
    {
      OFFSET -38.527049 2.253039 0.528946
      CHANNELS 3 Zrotation Xrotation Yrotation
      JOINT AnkleLeft
      {
        OFFSET 29.586470 -9.776741 18.559897
        CHANNELS 3 Zrotation Xrotation Yrotation
        JOINT FootLeft
        {
          OFFSET -11.270531 -8.169472 5.140397
          CHANNELS 3 Zrotation Xrotation Yrotation
          End Site
          {
            OFFSET 0 0 0
          }
        }
      }
    }
  }
  JOINT HipRight
  {
    OFFSET -2.601674 -3.162828 -2.302123
    CHANNELS 3 Zrotation Xrotation Yrotation
    JOINT KneeRight
    {
      OFFSET -19.539138 3.408286 -25.860871
      CHANNELS 3 Zrotation Xrotation Yrotation
      JOINT AnkleRight
      {
        OFFSET -10.209541 -15.649729 18.592921
        CHANNELS 3 Zrotation Xrotation Yrotation
        JOINT FootRight
        {
          OFFSET -0.107694 6.812961 -6.171476
          CHANNELS 3 Zrotation Xrotation Yrotation
          End Site
          {
            OFFSET 0 0 0
          }
        }
      }
    }
  }
}
MOTION
Frames: 13
Frame Time: 0.033333
106.064707 16.888230 396.012704 -0.000000 0.000000 -177.479828 -0.000000 0.000000 177.479828 -0.000000 0.000000 0.000000 -0.000000 0.000000 0.000000 0.000000 0.000000 0.000000 -0.000000 0.000000 0.000000 -0.000000 0.000000 0.000000 -0.000000 0.000000 0.000000 -0.000000 0.000000 0.000000 0.000000 0.000000 0.000000 0.000000 0.000000 0.000000 -0.000000 0.000000 0.000000 -0.000000 0.000000 0.000000 -0.000000 0.000000 0.000000 -0.000000 0.000000 0.000000 0.000000 0.000000 0.000000 0.000000 0.000000 0.000000 -0.000000 0.000000 177.479828 -0.000000 0.000000 0.000000 -0.000000 0.000000 0.000000 0.000000 0.000000 0.000000 -0.000000 0.000000 177.479828 -0.000000 0.000000 0.000000 -0.000000 0.000000 0.000000 0.000000 0.000000 0.000000
102.524730 16.951730 396.076207 -5.325038 1.474362 -175.220734 -1.403682 0.761558 175.186051 1.136812 -0.016717 -0.013370 1.002334 -3.842496 -0.070406 0.000000 0.000000 0.000000 2.727567 -0.807737 0.141891 -1.508125 -0.206976 0.659257 2.099149 0.770063 -2.377866 -5.093268 -3.816057 -1.161417 0.000000 0.000000 0.000000 0.000000 0.000000 0.000000 2.727567 -0.807737 0.141891 1.427413 0.533496 -2.048201 -1.074869 1.271922 -0.666482 -0.208285 -1.522674 1.186698 0.000000 0.000000 0.000000 0.000000 0.000000 0.000000 -5.186537 1.906114 175.375640 -0.000000 0.000000 0.000000 4.477392 2.419550 -0.658654 0.000000 0.000000 0.000000 -4.567137 1.954442 170.014361 3.170139 0.721549 8.262285 -13.036762 -3.520811 -12.341001 0.000000 0.000000 0.000000
99.652806 17.028790 396.107071 -9.408517 2.745114 -171.430587 -2.315823 1.419053 171.477653 1.966952 -0.067558 -0.015672 1.527831 -7.552430 -0.258748 0.000000 0.000000 0.000000 4.181346 -1.362163 -0.712549 -1.846544 -0.690468 2.261545 3.837633 1.493198 -4.751597 -9.275101 -7.196968 -1.911674 0.000000 0.000000 0.000000 0.000000 0.000000 0.000000 4.945106 -1.593940 0.290169 2.613069 0.973231 -3.760671 -1.795697 2.272726 -1.556870 -0.525996 -2.817618 2.592407 0.000000 0.000000 0.000000 0.000000 0.000000 0.000000 -8.417417 4.053679 171.186173 -0.412127 0.743800 1.191675 11.246351 4.798085 -2.286048 0.000000 0.000000 0.000000 -7.764961 4.096848 161.815071 5.473220 1.844824 15.151474 -23.244783 -3.879794 -21.815662 0.000000 0.000000 0.000000
97.448936 17.119412 396.105296 -12.280456 3.817905 -166.282439 -2.718976 1.957508 166.470208 2.520712 -0.155464 -0.013392 1.601682 -11.073302 -0.558558 0.000000 0.000000 0.000000 5.565589 -2.057312 -0.951418 -2.220451 -1.005605 3.215714 5.192607 2.158878 -7.064069 -12.369400 -10.054551 -2.055461 0.000000 0.000000 0.000000 0.000000 0.000000 0.000000 6.845077 -2.587252 -0.487580 3.335008 1.619836 -4.205941 -2.159729 2.911839 -2.506936 -0.954494 -3.767584 3.986507 0.000000 0.000000 0.000000 0.000000 0.000000 0.000000 -10.556817 6.466321 166.287108 -0.633029 0.928078 1.483716 19.170156 8.507919 -4.620500 0.000000 0.000000 0.000000 -9.528949 6.454692 153.183430 6.897502 3.003553 20.418256 -29.747223 -2.728745 -27.778028 0.000000 0.000000 0.000000
95.913119 17.223594 396.070880 -13.998201 4.713105 -160.689698 -2.687081 2.272735 161.028465 2.828501 -0.284580 -0.011681 1.253280 -14.355610 -0.957787 0.000000 0.000000 0.000000 6.494710 -2.767959 -1.123550 -2.231610 -1.277663 4.059109 6.136711 2.757512 -9.249977 -14.282223 -12.320311 -1.457623 0.000000 0.000000 0.000000 0.000000 0.000000 0.000000 8.108692 -3.493393 -0.641773 3.947223 2.111130 -4.929425 -2.190934 3.144859 -3.383857 -1.492205 -4.305408 5.199251 0.000000 0.000000 0.000000 0.000000 0.000000 0.000000 -11.386786 8.868363 161.057728 -0.890888 0.989164 1.535883 29.147357 12.930172 -8.481385 0.000000 0.000000 0.000000 -9.943805 8.758889 145.063699 7.515519 3.916340 23.927454 -32.530990 -1.143871 -30.354746 0.000000 0.000000 0.000000
95.045356 17.341338 396.003826 -14.610230 5.452737 -155.858541 -2.353252 2.229224 156.321494 2.913828 -0.459805 -0.014695 0.512433 -17.358539 -1.440099 0.000000 0.000000 0.000000 6.981065 -3.499423 -1.236616 -1.882893 -1.494621 4.795719 6.639302 3.282177 -11.240484 -14.976348 -13.911177 -0.038153 0.000000 0.000000 0.000000 0.000000 0.000000 0.000000 8.883618 -4.429257 -0.808217 4.298062 2.595085 -5.300143 -1.926490 2.980780 -4.111327 -2.127640 -4.419597 6.138212 0.000000 0.000000 0.000000 0.000000 0.000000 0.000000 -11.202264 10.804952 156.596811 -1.195919 0.927788 1.329648 41.132046 17.380228 -14.342595 0.000000 0.000000 0.000000 -9.295355 10.585194 138.638058 7.414357 4.413759 25.617594 -31.292959 0.624727 -29.357095 0.000000 0.000000 0.000000
94.937692 17.627579 394.983336 -13.875991 7.408410 -143.132904 -1.011095 1.544207 143.800049 3.106969 -1.378670 -0.026316 -0.306783 -20.763773 -2.030978 0.000000 0.000000 0.000000 6.961306 -5.005310 -1.384033 -0.442132 -1.776383 5.968460 6.487803 3.995850 -14.660841 -12.947226 -14.577423 5.228700 0.000000 0.000000 0.000000 0.000000 0.000000 0.000000 9.289788 -6.108474 -0.927635 4.086646 3.126290 -4.998664 -1.057879 2.331268 -4.959495 -2.744232 -4.263914 7.306729 0.000000 0.000000 0.000000 0.000000 0.000000 0.000000 -7.002588 14.072691 146.453063 -1.475222 0.769655 -1.824761 68.531618 22.385036 -33.983834 0.000000 0.000000 0.000000 -4.950179 13.858187 126.028743 5.836365 3.757818 23.776109 -20.303660 4.008878 -19.569898 0.000000 0.000000 0.000000
95.914937 17.615946 395.283842 -11.847078 6.524136 -148.301910 -0.873028 -0.246587 148.828007 2.343835 -1.275271 -0.071658 -0.663105 -21.670091 -2.205799 0.000000 0.000000 0.000000 6.503573 -5.658640 -1.302081 1.378263 -1.653889 6.163234 5.578659 4.801064 -14.746063 -8.600869 -11.774707 9.408811 0.000000 0.000000 0.000000 0.000000 0.000000 0.000000 8.818464 -7.632963 -0.699153 3.857260 4.689917 -4.892167 -1.092894 2.896138 -5.321850 -1.330937 -5.698907 7.898693 0.000000 0.000000 0.000000 0.000000 0.000000 0.000000 -7.697222 12.144827 150.166461 -1.694650 0.114626 -1.269110 80.955951 22.069006 -44.463415 0.000000 0.000000 0.000000 -5.030396 11.853484 132.674792 4.930514 3.507003 21.130105 -0.130270 9.450463 -1.517035 0.000000 0.000000 0.000000
96.652047 17.681850 395.783059 -10.052476 6.183498 -147.566857 -0.487509 -0.769411 147.966747 1.717351 -0.581422 -0.057691 -2.311534 -23.070790 -2.630830 0.000000 0.000000 0.000000 5.768472 -6.323172 -1.325755 2.422953 -1.651465 6.472730 4.932293 5.155639 -14.888612 -8.766274 -12.290260 9.514952 0.000000 0.000000 0.000000 0.000000 0.000000 0.000000 8.260206 -8.514230 -0.965565 2.384311 4.296206 -2.418322 0.690489 1.290793 -5.427196 -3.170445 -3.085545 7.211882 0.000000 0.000000 0.000000 0.000000 0.000000 0.000000 -8.067755 12.219447 148.484153 -2.994566 -0.580902 -0.626408 84.193930 22.368876 -43.908983 0.000000 0.000000 0.000000 -3.535125 11.089101 132.174770 1.829325 3.652776 16.871545 14.763211 19.720099 14.033497 0.000000 0.000000 0.000000
97.496205 17.464881 397.440444 -7.997500 3.564773 -162.315638 -0.259802 -1.972804 162.499287 0.814014 -0.108968 -0.095328 -4.468077 -23.672486 -3.136708 0.000000 0.000000 0.000000 4.943579 -5.277775 -1.320241 3.432439 -1.636186 6.660554 3.489638 4.592048 -15.958831 -7.445585 -10.644315 10.894304 0.000000 0.000000 0.000000 0.000000 0.000000 0.000000 7.698108 -7.182353 -1.780433 1.663268 3.608699 -0.890316 2.166819 -0.757429 -5.462847 -4.264702 -0.762861 6.715083 0.000000 0.000000 0.000000 0.000000 0.000000 0.000000 -10.167327 7.194415 159.442082 -2.968362 -0.618462 3.273849 76.951630 23.203612 -34.896503 0.000000 0.000000 0.000000 -5.043168 6.950994 146.299730 2.192308 4.249711 17.744347 24.553083 34.014634 21.994544 0.000000 0.000000 0.000000
98.041611 17.338488 398.720289 -6.044049 2.526050 178.500620 0.778376 -1.271166 -178.465040 0.461800 0.376245 -0.072776 -9.292856 -26.550616 -4.590025 0.000000 0.000000 0.000000 3.862213 -4.127047 -1.210924 4.237510 -1.692908 6.952910 2.216699 4.352699 -16.571671 -5.697727 -8.457468 11.929917 0.000000 0.000000 0.000000 0.000000 0.000000 0.000000 7.123184 -4.828398 -3.109294 3.221767 2.784072 -2.571684 2.401559 -3.274658 -4.512854 -5.698603 0.362670 9.971379 0.000000 0.000000 0.000000 0.000000 0.000000 0.000000 -9.314488 2.836421 174.615069 -1.631074 -0.905960 6.250438 56.600055 22.983718 -17.417645 0.000000 0.000000 0.000000 -5.577792 4.937035 164.850167 -1.276384 2.752986 15.418445 32.909348 46.359871 29.584379 0.000000 0.000000 0.000000
98.342087 17.031514 400.630889 -4.706168 0.123394 162.847142 0.958160 -1.352091 -162.898984 0.126688 0.130016 -0.087096 -15.094285 -28.774611 -6.106864 0.000000 0.000000 0.000000 2.959317 -1.809686 -1.004356 3.810389 -1.595760 6.404002 1.388212 3.411952 -15.938080 -5.019075 -7.261091 11.803549 0.000000 0.000000 0.000000 0.000000 0.000000 0.000000 6.796044 -0.801947 -4.803796 4.854828 0.542381 -3.659993 2.499844 -3.521414 -5.764079 -3.293358 -1.264520 14.703918 0.000000 0.000000 0.000000 0.000000 0.000000 0.000000 -6.629909 -1.097315 -173.599270 -1.072735 0.212963 11.300718 24.068941 11.305126 -4.100048 0.000000 0.000000 0.000000 -4.289960 1.164341 178.994648 -2.362838 1.835434 14.981991 38.108960 60.191165 35.281178 0.000000 0.000000 0.000000
98.835377 16.741361 402.742159 -3.126969 -2.027899 160.027487 1.528653 0.420957 -160.205605 0.167637 0.916249 -0.040040 -17.834356 -28.221166 -6.176381 0.000000 0.000000 0.000000 2.087839 1.023509 -1.230509 4.147103 -1.583774 6.584899 1.307834 3.342420 -15.966119 -5.173809 -6.658057 10.738432 0.000000 0.000000 0.000000 0.000000 0.000000 0.000000 7.770712 5.339027 -6.618784 6.481499 -3.468591 -4.731436 2.365200 -4.091085 -6.301745 -0.461659 -2.357100 21.489822 0.000000 0.000000 0.000000 0.000000 0.000000 0.000000 -4.686331 -2.777403 -173.546183 -0.275070 0.061550 14.282254 10.191063 4.230696 1.678404 0.000000 0.000000 0.000000 -2.391989 -0.121516 -179.262134 -3.469814 1.331412 15.191562 41.836543 58.522632 37.653622 0.000000 0.000000 0.000000
